HIERARCHY
ROOT Hips
{
	OFFSET 0.000000 0.000000 0.000000
	CHANNELS 6 Xposition Yposition Zposition Xrotation Yrotation Zrotation
	JOINT LeftUpLeg_virtual
	{
		OFFSET 0.000000 0.000000 0.000000
		CHANNELS 3 Xrotation Yrotation Zrotation
		JOINT LeftUpLeg
		{
			OFFSET 13.026900 -6.336304 -1.092800
			CHANNELS 3 Xrotation Yrotation Zrotation
			JOINT LeftLeg
			{
				OFFSET 0.524474 -46.096886 9.782700
				CHANNELS 3 Xrotation Yrotation Zrotation
				JOINT LeftFoot
				{
					OFFSET -0.524474 -53.427422 -12.948200
					CHANNELS 3 Xrotation Yrotation Zrotation
					JOINT LeftToeBase
					{
						OFFSET 0.192200 -14.009700 16.364100
						CHANNELS 3 Xrotation Yrotation Zrotation
						JOINT LeftToe_End
						{
							OFFSET -1.784700 -0.561700 9.474800
							CHANNELS 3 Xrotation Yrotation Zrotation
							End Site
							{
								OFFSET 0 0 0
							}
						}
					}
				}
			}
		}
	}
	JOINT RightUpLeg_virtual
	{
		OFFSET 0.000000 0.000000 0.000000
		CHANNELS 3 Xrotation Yrotation Zrotation
		JOINT RightUpLeg
		{
			OFFSET -12.883000 -6.336304 -1.092800
			CHANNELS 3 Xrotation Yrotation Zrotation
			JOINT RightLeg
			{
				OFFSET -0.524587 -46.096825 9.782800
				CHANNELS 3 Xrotation Yrotation Zrotation
				JOINT RightFoot
				{
					OFFSET 0.524587 -53.427383 -12.948300
					CHANNELS 3 Xrotation Yrotation Zrotation
					JOINT RightToeBase
					{
						OFFSET -0.192200 -14.009700 16.364100
						CHANNELS 3 Xrotation Yrotation Zrotation
						JOINT RightToe_End
						{
							OFFSET 1.784700 -0.561700 9.474800
							CHANNELS 3 Xrotation Yrotation Zrotation
							End Site
							{
								OFFSET 0 0 0
							}
						}
					}
				}
			}
		}
	}
	JOINT Spine_virtual
	{
		OFFSET 0.000000 0.000000 0.000000
		CHANNELS 3 Xrotation Yrotation Zrotation
		JOINT Spine
		{
			OFFSET 0.072000 7.257294 -0.789700
			CHANNELS 3 Xrotation Yrotation Zrotation
			JOINT Spine1
			{
				OFFSET 0.000000 12.508769 -0.658067
				CHANNELS 3 Xrotation Yrotation Zrotation
				JOINT Spine1_split
				{
					OFFSET 0.000000 12.508769 -0.658067
					CHANNELS 3 Xrotation Yrotation Zrotation
					JOINT Spine2
					{
						OFFSET 0.000000 12.508769 -0.658067
						CHANNELS 3 Xrotation Yrotation Zrotation
						JOINT Neck_virtual
						{
							OFFSET 0.000000 0.000000 0.000000
							CHANNELS 3 Xrotation Yrotation Zrotation
							JOINT Neck
							{
								OFFSET 0.000000 14.033295 7.520400
								CHANNELS 3 Xrotation Yrotation Zrotation
								JOINT Head
								{
									OFFSET 0.000000 8.198502 5.703100
									CHANNELS 3 Xrotation Yrotation Zrotation
									JOINT HeadTop_End
									{
										OFFSET 0.000000 17.760803 13.332701
										CHANNELS 3 Xrotation Yrotation Zrotation
										End Site
										{
											OFFSET 0 0 0
										}
									}
								}
							}
						}
						JOINT LeftShoulder_virtual
						{
							OFFSET 0.000000 0.000000 0.000000
							CHANNELS 3 Xrotation Yrotation Zrotation
							JOINT LeftShoulder
							{
								OFFSET 6.292450 5.785301 -0.669000
								CHANNELS 3 Xrotation Yrotation Zrotation
								JOINT LeftShoulder_split
								{
									OFFSET 6.292450 5.785301 -0.669000
									CHANNELS 3 Xrotation Yrotation Zrotation
									JOINT LeftArm
									{
										OFFSET 13.907140 -6.093903 1.965100
										CHANNELS 3 Xrotation Yrotation Zrotation
										JOINT LeftForeArm
										{
											OFFSET 34.140198 0.000000 0.000000
											CHANNELS 3 Xrotation Yrotation Zrotation
											JOINT LeftHand
											{
												OFFSET 40.960209 0.000000 0.000000
												CHANNELS 3 Xrotation Yrotation Zrotation
												End Site
												{
													OFFSET 0 0 0
												}
											}
										}
									}
								}
							}
						}
						JOINT RightShoulder_virtual
						{
							OFFSET 0.000000 0.000000 0.000000
							CHANNELS 3 Xrotation Yrotation Zrotation
							JOINT RightShoulder
							{
								OFFSET -6.292450 5.785301 -0.669000
								CHANNELS 3 Xrotation Yrotation Zrotation
								JOINT RightShoulder_split
								{
									OFFSET -6.292450 5.785301 -0.669000
									CHANNELS 3 Xrotation Yrotation Zrotation
									JOINT RightArm
									{
										OFFSET -13.907140 -6.093903 1.965100
										CHANNELS 3 Xrotation Yrotation Zrotation
										JOINT RightForeArm
										{
											OFFSET -34.140198 0.000000 0.000000
											CHANNELS 3 Xrotation Yrotation Zrotation
											JOINT RightHand
											{
												OFFSET -40.960209 0.000000 0.000000
												CHANNELS 3 Xrotation Yrotation Zrotation
												End Site
												{
													OFFSET 0 0 0
												}
											}
										}
									}
								}
							}
						}
					}
				}
			}
		}
	}
}
MOTION
Frames: 8
Frame Time: 0.03333333
-2.189259 110.313499 4.442944 0.000000 0.000000 0.000000 32.415333 -2.332296 -5.867735 -64.502462 7.862590 -1.180351 66.949951 -7.500002 5.361666 6.729320 -2.389630 7.495538 -15.091306 -1.916845 1.313324 0.000000 0.000000 0.000000 29.743175 -3.831632 -5.361433 -25.913080 -14.950878 3.691621 30.755526 -4.819645 -0.993677 -21.907106 3.584702 5.924840 -8.931097 -0.855728 1.027450 0.000000 0.000000 0.000000 30.030576 -1.475972 -5.563834 3.243051 3.202683 -0.408605 -0.173568 1.607729 -0.435838 0.268973 -0.072080 -0.080446 0.000000 0.000000 0.000000 -0.109306 1.555514 -0.231566 -11.465567 0.063588 3.001703 -10.645227 3.652062 -2.415812 0.000000 0.000000 0.000000 -1.019701 1.865345 -0.436499 1.192217 0.941423 -19.459265 3.086348 -1.673463 0.513149 18.489747 -3.108806 -42.405322 1.883721 -68.141935 -0.250306 0.000000 0.000000 0.000000 -0.284461 1.539005 -0.778254 1.576728 4.726934 18.433268 3.075003 2.059120 -3.058846 7.729618 -12.153306 51.112980 0.669066 66.856603 0.699212 0.000000 0.000000 0.000000 
-2.557123 109.518204 8.043888 0.000000 0.000000 0.000000 31.618619 -4.302095 -5.237858 -67.557292 9.430118 -0.314183 61.717296 -6.274779 4.019700 6.249540 -2.123445 7.773326 -13.475845 -1.611768 0.950646 0.000000 0.000000 0.000000 30.745311 -4.592184 -5.078584 -24.795562 -13.937340 3.856265 32.443409 -5.341775 -0.584332 -20.572012 2.086303 7.658533 -12.629658 -1.064641 1.059139 0.000000 0.000000 0.000000 29.625242 -1.057278 -5.824634 3.902432 3.485531 -0.634011 -0.032460 1.724524 -0.399146 0.421175 1.111536 -0.149069 0.000000 0.000000 0.000000 -0.307350 1.593041 -0.298500 -11.613412 -0.043535 2.943256 -10.791331 3.509750 -2.297403 0.000000 0.000000 0.000000 -0.955797 1.980065 -0.451574 1.210912 0.911884 -19.172068 2.601710 -1.400752 0.120913 18.374421 -3.322139 -42.952194 1.953566 -68.445339 -0.008582 0.000000 0.000000 0.000000 -0.209271 1.645504 -0.867504 1.590336 5.079135 18.330349 3.645011 2.482207 -3.096125 7.903821 -11.625970 51.042704 0.762899 68.099158 0.528467 0.000000 0.000000 0.000000 
-3.434262 107.703613 12.656940 0.000000 0.000000 0.000000 30.997246 -6.284237 -4.314228 -73.168388 10.358472 1.019628 57.714374 -4.894105 2.558893 7.842433 -0.529103 7.623654 -8.657470 -1.073610 -0.187745 0.000000 0.000000 0.000000 31.616526 -4.493197 -4.993499 -21.064059 -12.178777 4.704718 33.956391 -6.753389 -0.235081 -23.019226 -0.209134 6.605381 -10.799912 -0.773895 0.778388 0.000000 0.000000 0.000000 29.178742 -0.852241 -5.789137 4.693087 3.912205 -1.073923 0.175592 1.925964 -0.405958 0.616175 2.147211 0.149219 0.000000 0.000000 0.000000 -0.394990 1.719500 -0.418935 -11.919139 -0.116885 2.694817 -11.184104 3.090339 -2.093664 0.000000 0.000000 0.000000 -0.816829 2.152410 -0.484502 1.265410 0.994184 -18.698305 2.084787 -1.167571 -0.330844 18.113530 -3.692794 -43.882313 2.337133 -68.706328 0.692576 0.000000 0.000000 0.000000 -0.148801 1.817437 -0.974733 1.610091 5.612031 18.090439 4.092141 2.846018 -3.061774 9.000489 -11.159749 51.092609 0.770777 70.023209 0.366647 0.000000 0.000000 0.000000 
-4.735228 105.068069 17.676060 0.000000 0.000000 0.000000 30.472363 -7.592317 -3.238478 -79.014128 10.567476 1.668580 54.347662 -3.401385 1.499332 10.377053 1.932596 7.593395 -4.311212 -0.706088 -1.034437 0.000000 0.000000 0.000000 32.127707 -4.255514 -4.684131 -16.111564 -10.300097 5.405876 33.854966 -8.428451 -0.180791 -27.690975 -2.168612 3.461896 -5.289514 0.001636 0.216143 0.000000 0.000000 0.000000 29.020494 -0.804338 -5.456748 5.412414 4.380490 -1.831658 0.365697 2.153152 -0.424745 0.750496 2.362635 0.463931 0.000000 0.000000 0.000000 -0.358192 1.940201 -0.549163 -12.274220 -0.107197 2.340892 -11.713817 2.562584 -1.865826 0.000000 0.000000 0.000000 -0.634819 2.358703 -0.499863 1.343818 1.102147 -18.112781 1.681504 -0.970008 -0.754920 17.728900 -3.975612 -45.141133 2.860747 -68.898550 1.649819 0.000000 0.000000 0.000000 -0.108180 2.022809 -1.065774 1.651798 6.175398 17.742817 4.214368 3.155695 -2.887086 10.888664 -10.925885 51.352026 0.741334 72.255342 0.178340 0.000000 0.000000 0.000000 
-6.153339 102.253983 23.123829 0.000000 0.000000 0.000000 30.181687 -8.107184 -2.274751 -83.120349 10.913367 1.362559 49.801003 -1.262923 0.767266 11.272169 4.609503 9.190622 -3.040137 -0.618031 -1.023608 0.000000 0.000000 0.000000 32.330977 -4.218697 -3.990123 -11.074274 -8.781348 5.496985 31.678202 -8.911169 -0.663113 -31.098073 -2.848879 0.883624 -2.340699 1.043040 -0.457767 0.000000 0.000000 0.000000 29.352007 -0.733206 -4.799807 5.901448 4.803772 -2.924225 0.518668 2.399432 -0.436300 1.129993 2.108957 0.719944 0.000000 0.000000 0.000000 -0.264794 2.223244 -0.650812 -12.553509 -0.053328 1.984351 -12.231192 2.167404 -1.687522 0.000000 0.000000 0.000000 -0.469391 2.575280 -0.492921 1.415407 1.180691 -17.556655 1.383945 -0.885924 -1.205018 17.230259 -3.957493 -46.586603 3.271106 -69.136268 2.561616 0.000000 0.000000 0.000000 -0.111324 2.253077 -1.099886 1.707228 6.635332 17.383294 3.929676 3.673618 -2.641378 13.213945 -11.033298 51.880167 0.702133 74.478801 -0.024233 0.000000 0.000000 0.000000 
-7.769147 99.743378 28.721218 0.000000 0.000000 0.000000 30.247380 -7.851971 -1.529566 -84.738558 11.855783 0.541430 44.019466 0.988782 0.362927 10.209173 6.509230 11.980512 -4.483647 -0.728774 -0.509139 0.000000 0.000000 0.000000 32.437682 -4.015314 -3.181582 -6.589268 -7.935884 4.973733 27.956167 -7.645657 -1.628817 -30.325476 -2.289321 0.625574 -5.546330 2.119499 -0.857153 0.000000 0.000000 0.000000 30.029323 -0.866399 -3.913604 6.134733 5.077808 -4.310891 0.613809 2.636408 -0.445546 1.291775 1.347421 0.743062 0.000000 0.000000 0.000000 -0.202004 2.540630 -0.713137 -12.659702 0.027236 1.738511 -12.477250 2.176610 -1.545242 0.000000 0.000000 0.000000 -0.363687 2.799710 -0.480048 1.453204 1.177944 -17.111033 1.133818 -0.812446 -1.526213 16.599720 -3.470291 -48.046331 3.419316 -69.523034 3.203813 0.000000 0.000000 0.000000 -0.164815 2.506039 -1.062857 1.763655 6.864201 17.087938 3.265696 4.310045 -2.310427 15.529750 -11.481402 52.749742 0.674498 76.484629 -0.246052 0.000000 0.000000 0.000000 
-9.502128 97.854279 34.631355 0.000000 0.000000 0.000000 30.228392 -6.820867 -1.226464 -84.836844 13.077242 -0.148362 38.759787 2.439279 0.181953 9.194685 7.041540 13.735671 -6.135463 -0.829014 -0.155864 0.000000 0.000000 0.000000 32.226181 -3.948994 -2.429028 -2.993801 -7.782333 4.288270 24.297891 -5.649848 -2.653262 -25.502016 -1.262726 1.249058 -13.925297 2.898487 -0.600193 0.000000 0.000000 0.000000 30.452829 -0.880414 -3.137880 6.211537 5.208628 -5.738695 0.639576 2.879538 -0.451528 1.368653 0.440401 0.505041 0.000000 0.000000 0.000000 -0.202121 2.870404 -0.758401 -12.686132 0.122861 1.645726 -12.295582 2.527295 -1.418392 0.000000 0.000000 0.000000 -0.353360 3.047518 -0.481931 1.444086 1.068269 -16.849423 0.952058 -0.790283 -1.632509 15.983423 -2.562291 -49.373528 3.142480 -70.033946 3.355196 0.000000 0.000000 0.000000 -0.283662 2.783516 -0.991915 1.786671 6.780410 16.890388 2.376555 5.002821 -1.971995 17.401263 -12.201189 53.864921 0.636582 78.182771 -0.417524 0.000000 0.000000 0.000000 
-11.014338 96.633469 40.513329 0.000000 0.000000 0.000000 29.929090 -5.571287 -1.408023 -84.045771 13.964351 -0.166874 35.521389 3.145890 -0.237650 9.156135 6.735871 14.282942 -7.133123 -0.865948 0.154162 0.000000 0.000000 0.000000 31.727526 -3.743515 -2.012920 -1.071903 -8.554044 3.502451 23.613450 -3.854970 -3.112800 -17.952042 -0.399328 1.606948 -24.806766 2.852687 0.354145 0.000000 0.000000 0.000000 30.253643 -0.753749 -2.687359 6.243529 5.226536 -6.881437 0.656296 3.136622 -0.487688 1.440875 -0.160882 0.398727 0.000000 0.000000 0.000000 -0.272249 3.184479 -0.815783 -12.672041 0.160676 1.702563 -11.668953 3.005596 -1.331732 0.000000 0.000000 0.000000 -0.428947 3.301090 -0.526601 1.393649 0.867821 -16.815649 0.936392 -0.810433 -1.521773 15.516185 -1.494697 -50.384963 2.507750 -70.550499 3.007253 0.000000 0.000000 0.000000 -0.438472 3.076929 -0.913488 1.767342 6.391128 16.857855 1.723674 5.560594 -1.688208 18.499130 -13.010231 54.941335 0.618556 79.518264 -0.524716 0.000000 0.000000 0.000000 
